G75*
%MOIN*%
%OFA0B0*%
%FSLAX25Y25*%
%IPPOS*%
%LPD*%
%AMOC8*
5,1,8,0,0,1.08239X$1,22.5*
%
%ADD10C,0.02578*%
%ADD11C,0.00600*%
D10*
X0011300Y0016150D03*
X0012500Y0020350D03*
X0016700Y0026950D03*
X0019700Y0023350D03*
X0026172Y0025171D03*
X0027751Y0019740D03*
X0027200Y0015650D03*
X0028100Y0005050D03*
X0024600Y0005050D03*
X0018100Y0005050D03*
X0014600Y0005050D03*
X0032900Y0027550D03*
X0028100Y0035850D03*
X0018500Y0034750D03*
X0017428Y0042678D03*
X0021320Y0047958D03*
X0012512Y0044196D03*
D11*
X0021320Y0047958D01*
X0017428Y0042678D02*
X0018100Y0042006D01*
X0018100Y0038550D01*
X0029100Y0038550D01*
X0032318Y0035332D01*
X0032318Y0025970D01*
X0030100Y0018550D01*
X0027200Y0015650D01*
X0024600Y0018050D02*
X0023600Y0006050D01*
X0024600Y0005050D01*
X0024600Y0018050D02*
X0026990Y0019940D01*
X0027807Y0019940D01*
X0028407Y0022361D01*
X0028747Y0023600D01*
X0028747Y0025414D01*
X0028407Y0026739D01*
X0027923Y0027232D01*
X0028100Y0035850D01*
X0032900Y0027550D02*
X0032318Y0025970D01*
X0027807Y0019940D02*
X0027751Y0019740D01*
X0026300Y0023350D02*
X0026172Y0025171D01*
X0026300Y0023350D02*
X0019700Y0023350D01*
X0016700Y0026950D02*
X0015500Y0019150D01*
X0015500Y0017950D01*
X0014100Y0016550D01*
X0011700Y0016550D01*
X0011300Y0016150D01*
X0012500Y0020350D02*
X0011900Y0028150D01*
X0018500Y0034750D01*
M02*
