G75*
%MOIN*%
%OFA0B0*%
%FSLAX25Y25*%
%IPPOS*%
%LPD*%
%AMOC8*
5,1,8,0,0,1.08239X$1,22.5*
%
%ADD10C,0.00300*%
%ADD11C,0.00600*%
D10*
X0007362Y0008700D02*
X0008813Y0008700D01*
X0009297Y0009184D01*
X0009297Y0010151D01*
X0008813Y0010635D01*
X0007362Y0010635D01*
X0007362Y0011602D02*
X0007362Y0008700D01*
X0010293Y0008700D02*
X0011261Y0008700D01*
X0010777Y0008700D02*
X0010777Y0011602D01*
X0011261Y0011602D01*
X0012272Y0010151D02*
X0012272Y0008700D01*
X0012272Y0010151D02*
X0012756Y0010635D01*
X0014207Y0010635D01*
X0014207Y0008700D01*
X0017154Y0008700D02*
X0015219Y0011602D01*
X0018165Y0010635D02*
X0019617Y0010635D01*
X0020100Y0010151D01*
X0020100Y0009184D01*
X0019617Y0008700D01*
X0018165Y0008700D01*
X0021112Y0008700D02*
X0022563Y0008700D01*
X0023047Y0009184D01*
X0023047Y0010151D01*
X0022563Y0010635D01*
X0021112Y0010635D01*
X0024036Y0009184D02*
X0024036Y0008700D01*
X0024520Y0008700D01*
X0024520Y0009184D01*
X0024036Y0009184D01*
X0025524Y0010635D02*
X0026008Y0010635D01*
X0026976Y0009667D01*
X0026976Y0008700D02*
X0026976Y0010635D01*
X0028456Y0010635D02*
X0028456Y0008700D01*
X0028940Y0008700D02*
X0027972Y0008700D01*
X0028456Y0010635D02*
X0028940Y0010635D01*
X0028456Y0011602D02*
X0028456Y0012086D01*
X0029952Y0010151D02*
X0029952Y0008700D01*
X0031403Y0008700D01*
X0031886Y0009184D01*
X0031403Y0009667D01*
X0029952Y0009667D01*
X0029952Y0010151D02*
X0030435Y0010635D01*
X0031403Y0010635D01*
X0032898Y0010635D02*
X0032898Y0008216D01*
X0033382Y0007733D01*
X0033866Y0007733D01*
X0034349Y0008700D02*
X0032898Y0008700D01*
X0034349Y0008700D02*
X0034833Y0009184D01*
X0034833Y0010635D01*
D11*
X0023900Y0031950D02*
X0024800Y0032850D01*
X0024000Y0034150D01*
X0024500Y0035450D01*
X0026000Y0035750D01*
X0026000Y0037050D01*
X0024500Y0037250D01*
X0023900Y0038550D01*
X0024800Y0039850D01*
X0023900Y0040750D01*
X0022600Y0039850D01*
X0021400Y0040350D01*
X0021100Y0041950D01*
X0019800Y0041950D01*
X0019500Y0040350D01*
X0018300Y0039850D01*
X0016900Y0040750D01*
X0016000Y0039850D01*
X0016900Y0038550D01*
X0016400Y0037350D01*
X0014900Y0037050D01*
X0014900Y0035750D01*
X0016300Y0035450D01*
X0016900Y0034150D01*
X0016000Y0032850D01*
X0016900Y0031950D01*
X0018100Y0032750D01*
X0018700Y0032450D01*
X0019600Y0034750D01*
X0019000Y0034450D02*
X0018000Y0036450D01*
X0019000Y0037950D01*
X0020500Y0038450D01*
X0022000Y0037950D01*
X0022500Y0036450D01*
X0022000Y0034950D01*
X0021500Y0034450D01*
X0022500Y0032950D01*
X0024000Y0032450D01*
X0024500Y0032950D01*
X0023500Y0034450D01*
X0024500Y0035950D01*
X0025500Y0035950D01*
X0025500Y0036950D01*
X0024000Y0036950D01*
X0023500Y0038450D01*
X0024500Y0039950D01*
X0024000Y0040450D01*
X0022500Y0039450D01*
X0021000Y0040450D01*
X0021000Y0041450D01*
X0020000Y0041450D01*
X0019500Y0039950D01*
X0018000Y0039450D01*
X0017000Y0040450D01*
X0016500Y0039950D01*
X0017000Y0038450D01*
X0016500Y0036950D01*
X0015000Y0036950D01*
X0015500Y0035950D01*
X0017000Y0035450D01*
X0017000Y0033950D01*
X0016500Y0032950D01*
X0017000Y0032450D01*
X0018000Y0032950D01*
X0018500Y0032950D01*
X0019000Y0034450D01*
X0018889Y0034673D02*
X0017000Y0034673D01*
X0017000Y0035271D02*
X0018589Y0035271D01*
X0018290Y0035870D02*
X0015741Y0035870D01*
X0015241Y0036468D02*
X0018012Y0036468D01*
X0018411Y0037067D02*
X0016539Y0037067D01*
X0016738Y0037665D02*
X0018810Y0037665D01*
X0019941Y0038264D02*
X0016938Y0038264D01*
X0016863Y0038862D02*
X0023775Y0038862D01*
X0023562Y0038264D02*
X0021059Y0038264D01*
X0022095Y0037665D02*
X0023762Y0037665D01*
X0023961Y0037067D02*
X0022294Y0037067D01*
X0022494Y0036468D02*
X0025500Y0036468D01*
X0024446Y0035870D02*
X0022307Y0035870D01*
X0022107Y0035271D02*
X0024047Y0035271D01*
X0023648Y0034673D02*
X0021723Y0034673D01*
X0021200Y0034750D02*
X0022200Y0032450D01*
X0022700Y0032750D01*
X0023900Y0031950D01*
X0024427Y0032877D02*
X0022719Y0032877D01*
X0022150Y0033476D02*
X0024150Y0033476D01*
X0023751Y0034074D02*
X0021751Y0034074D01*
X0021200Y0034750D02*
X0021274Y0034789D01*
X0021347Y0034832D01*
X0021417Y0034878D01*
X0021485Y0034928D01*
X0021551Y0034980D01*
X0021614Y0035036D01*
X0021674Y0035094D01*
X0021732Y0035155D01*
X0021786Y0035219D01*
X0021838Y0035285D01*
X0021886Y0035354D01*
X0021931Y0035425D01*
X0021973Y0035498D01*
X0022011Y0035573D01*
X0022046Y0035649D01*
X0022077Y0035727D01*
X0022105Y0035807D01*
X0022128Y0035888D01*
X0022148Y0035969D01*
X0022164Y0036052D01*
X0022176Y0036135D01*
X0022184Y0036219D01*
X0022188Y0036302D01*
X0022189Y0036387D01*
X0022185Y0036470D01*
X0022177Y0036554D01*
X0022166Y0036637D01*
X0022150Y0036720D01*
X0022131Y0036802D01*
X0022108Y0036883D01*
X0022081Y0036962D01*
X0022050Y0037041D01*
X0022016Y0037117D01*
X0021978Y0037192D01*
X0021937Y0037265D01*
X0021892Y0037337D01*
X0021844Y0037406D01*
X0021793Y0037472D01*
X0021739Y0037537D01*
X0021682Y0037598D01*
X0021622Y0037657D01*
X0021559Y0037713D01*
X0021494Y0037766D01*
X0021426Y0037816D01*
X0021356Y0037862D01*
X0021284Y0037905D01*
X0021210Y0037945D01*
X0021134Y0037981D01*
X0021057Y0038014D01*
X0020978Y0038043D01*
X0020898Y0038068D01*
X0020816Y0038090D01*
X0020734Y0038108D01*
X0020651Y0038121D01*
X0020568Y0038131D01*
X0020484Y0038137D01*
X0020400Y0038139D01*
X0020316Y0038137D01*
X0020232Y0038131D01*
X0020149Y0038121D01*
X0020066Y0038108D01*
X0019984Y0038090D01*
X0019902Y0038068D01*
X0019822Y0038043D01*
X0019743Y0038014D01*
X0019666Y0037981D01*
X0019590Y0037945D01*
X0019516Y0037905D01*
X0019444Y0037862D01*
X0019374Y0037816D01*
X0019306Y0037766D01*
X0019241Y0037713D01*
X0019178Y0037657D01*
X0019118Y0037598D01*
X0019061Y0037537D01*
X0019007Y0037472D01*
X0018956Y0037406D01*
X0018908Y0037337D01*
X0018863Y0037265D01*
X0018822Y0037192D01*
X0018784Y0037117D01*
X0018750Y0037041D01*
X0018719Y0036962D01*
X0018692Y0036883D01*
X0018669Y0036802D01*
X0018650Y0036720D01*
X0018634Y0036637D01*
X0018623Y0036554D01*
X0018615Y0036470D01*
X0018611Y0036387D01*
X0018612Y0036302D01*
X0018616Y0036219D01*
X0018624Y0036135D01*
X0018636Y0036052D01*
X0018652Y0035969D01*
X0018672Y0035888D01*
X0018695Y0035807D01*
X0018723Y0035727D01*
X0018754Y0035649D01*
X0018789Y0035573D01*
X0018827Y0035498D01*
X0018869Y0035425D01*
X0018914Y0035354D01*
X0018962Y0035285D01*
X0019014Y0035219D01*
X0019068Y0035155D01*
X0019126Y0035094D01*
X0019186Y0035036D01*
X0019249Y0034980D01*
X0019315Y0034928D01*
X0019383Y0034878D01*
X0019453Y0034832D01*
X0019526Y0034789D01*
X0019600Y0034750D01*
X0018875Y0034074D02*
X0017000Y0034074D01*
X0016763Y0033476D02*
X0018675Y0033476D01*
X0017854Y0032877D02*
X0016573Y0032877D01*
X0016663Y0039461D02*
X0017989Y0039461D01*
X0018032Y0039461D02*
X0022484Y0039461D01*
X0022516Y0039461D02*
X0024174Y0039461D01*
X0024391Y0040059D02*
X0023414Y0040059D01*
X0021586Y0040059D02*
X0019536Y0040059D01*
X0019736Y0040658D02*
X0021000Y0040658D01*
X0021000Y0041256D02*
X0019935Y0041256D01*
X0017391Y0040059D02*
X0016609Y0040059D01*
M02*
