G75*
%MOIN*%
%OFA0B0*%
%FSLAX25Y25*%
%IPPOS*%
%LPD*%
%AMOC8*
5,1,8,0,0,1.08239X$1,22.5*
%
%ADD10R,0.06100X0.02100*%
%ADD11R,0.02756X0.03543*%
%ADD12R,0.04724X0.03150*%
%ADD13R,0.03543X0.01378*%
%ADD14R,0.03937X0.01378*%
%ADD15R,0.01181X0.02775*%
%ADD16C,0.00100*%
D10*
X0005800Y0009450D03*
X0005800Y0014450D03*
X0005800Y0019450D03*
X0005800Y0024450D03*
X0035000Y0024450D03*
X0035000Y0019450D03*
X0035000Y0014450D03*
X0035000Y0009450D03*
D11*
X0036959Y0031750D03*
X0036621Y0037418D03*
G36*
X0032936Y0040153D02*
X0030987Y0042102D01*
X0033490Y0044605D01*
X0035439Y0042656D01*
X0032936Y0040153D01*
G37*
X0031503Y0037418D03*
X0031841Y0031750D03*
G36*
X0029317Y0043772D02*
X0027368Y0045721D01*
X0029871Y0048224D01*
X0031820Y0046275D01*
X0029317Y0043772D01*
G37*
D12*
X0026998Y0039295D03*
X0026998Y0032405D03*
X0014202Y0032405D03*
X0014202Y0039295D03*
D13*
X0017025Y0045372D03*
X0017025Y0048128D03*
X0024899Y0048128D03*
D14*
X0024702Y0045372D03*
D15*
X0008853Y0041865D03*
X0006884Y0041865D03*
X0004916Y0041865D03*
X0002947Y0041865D03*
X0002947Y0030035D03*
X0004916Y0030035D03*
X0006884Y0030035D03*
X0008853Y0030035D03*
D16*
X0009050Y0033194D02*
X0009050Y0038706D01*
X0002750Y0038706D01*
X0002750Y0033194D01*
X0009050Y0033194D01*
X0009050Y0033202D02*
X0002750Y0033202D01*
X0002750Y0033300D02*
X0009050Y0033300D01*
X0009050Y0033399D02*
X0002750Y0033399D01*
X0002750Y0033497D02*
X0009050Y0033497D01*
X0009050Y0033596D02*
X0002750Y0033596D01*
X0002750Y0033694D02*
X0009050Y0033694D01*
X0009050Y0033793D02*
X0002750Y0033793D01*
X0002750Y0033891D02*
X0009050Y0033891D01*
X0009050Y0033990D02*
X0002750Y0033990D01*
X0002750Y0034089D02*
X0009050Y0034089D01*
X0009050Y0034187D02*
X0002750Y0034187D01*
X0002750Y0034286D02*
X0009050Y0034286D01*
X0009050Y0034384D02*
X0002750Y0034384D01*
X0002750Y0034483D02*
X0009050Y0034483D01*
X0009050Y0034581D02*
X0002750Y0034581D01*
X0002750Y0034680D02*
X0009050Y0034680D01*
X0009050Y0034778D02*
X0002750Y0034778D01*
X0002750Y0034877D02*
X0009050Y0034877D01*
X0009050Y0034975D02*
X0002750Y0034975D01*
X0002750Y0035074D02*
X0009050Y0035074D01*
X0009050Y0035172D02*
X0002750Y0035172D01*
X0002750Y0035271D02*
X0009050Y0035271D01*
X0009050Y0035369D02*
X0002750Y0035369D01*
X0002750Y0035468D02*
X0009050Y0035468D01*
X0009050Y0035566D02*
X0002750Y0035566D01*
X0002750Y0035665D02*
X0009050Y0035665D01*
X0009050Y0035763D02*
X0002750Y0035763D01*
X0002750Y0035862D02*
X0009050Y0035862D01*
X0009050Y0035960D02*
X0002750Y0035960D01*
X0002750Y0036059D02*
X0009050Y0036059D01*
X0009050Y0036157D02*
X0002750Y0036157D01*
X0002750Y0036256D02*
X0009050Y0036256D01*
X0009050Y0036354D02*
X0002750Y0036354D01*
X0002750Y0036453D02*
X0009050Y0036453D01*
X0009050Y0036551D02*
X0002750Y0036551D01*
X0002750Y0036650D02*
X0009050Y0036650D01*
X0009050Y0036748D02*
X0002750Y0036748D01*
X0002750Y0036847D02*
X0009050Y0036847D01*
X0009050Y0036945D02*
X0002750Y0036945D01*
X0002750Y0037044D02*
X0009050Y0037044D01*
X0009050Y0037142D02*
X0002750Y0037142D01*
X0002750Y0037241D02*
X0009050Y0037241D01*
X0009050Y0037339D02*
X0002750Y0037339D01*
X0002750Y0037438D02*
X0009050Y0037438D01*
X0009050Y0037536D02*
X0002750Y0037536D01*
X0002750Y0037635D02*
X0009050Y0037635D01*
X0009050Y0037733D02*
X0002750Y0037733D01*
X0002750Y0037832D02*
X0009050Y0037832D01*
X0009050Y0037930D02*
X0002750Y0037930D01*
X0002750Y0038029D02*
X0009050Y0038029D01*
X0009050Y0038127D02*
X0002750Y0038127D01*
X0002750Y0038226D02*
X0009050Y0038226D01*
X0009050Y0038324D02*
X0002750Y0038324D01*
X0002750Y0038423D02*
X0009050Y0038423D01*
X0009050Y0038522D02*
X0002750Y0038522D01*
X0002750Y0038620D02*
X0009050Y0038620D01*
M02*
