G75*
%MOIN*%
%OFA0B0*%
%FSLAX25Y25*%
%IPPOS*%
%LPD*%
%AMOC8*
5,1,8,0,0,1.08239X$1,22.5*
%
%ADD10R,0.06100X0.02100*%
%ADD11R,0.02756X0.03543*%
%ADD12R,0.04724X0.03150*%
%ADD13R,0.03543X0.01378*%
%ADD14R,0.03937X0.01378*%
%ADD15R,0.01181X0.02775*%
%ADD16R,0.06299X0.05512*%
%ADD17C,0.00600*%
%ADD18C,0.02578*%
D10*
X0005800Y0009450D03*
X0005800Y0014450D03*
X0005800Y0019450D03*
X0005800Y0024450D03*
X0035000Y0024450D03*
X0035000Y0019450D03*
X0035000Y0014450D03*
X0035000Y0009450D03*
D11*
X0036959Y0031750D03*
X0036621Y0037418D03*
G36*
X0032936Y0040153D02*
X0030987Y0042102D01*
X0033490Y0044605D01*
X0035439Y0042656D01*
X0032936Y0040153D01*
G37*
X0031503Y0037418D03*
X0031841Y0031750D03*
G36*
X0029317Y0043772D02*
X0027368Y0045721D01*
X0029871Y0048224D01*
X0031820Y0046275D01*
X0029317Y0043772D01*
G37*
D12*
X0026998Y0039295D03*
X0026998Y0032405D03*
X0014202Y0032405D03*
X0014202Y0039295D03*
D13*
X0017025Y0045372D03*
X0017025Y0048128D03*
X0024899Y0048128D03*
D14*
X0024702Y0045372D03*
D15*
X0008853Y0041865D03*
X0006884Y0041865D03*
X0004916Y0041865D03*
X0002947Y0041865D03*
X0002947Y0030035D03*
X0004916Y0030035D03*
X0006884Y0030035D03*
X0008853Y0030035D03*
D16*
X0005900Y0035950D03*
D17*
X0002900Y0039550D02*
X0010700Y0039550D01*
X0010700Y0028750D01*
X0016100Y0023350D01*
X0019074Y0023850D01*
X0019800Y0023124D01*
X0019800Y0018750D01*
X0019400Y0013150D01*
X0018400Y0006350D01*
X0018100Y0005050D01*
X0014600Y0005050D02*
X0013000Y0011150D01*
X0013000Y0011650D01*
X0011900Y0010550D01*
X0010450Y0009550D01*
X0005900Y0009550D01*
X0005800Y0009450D01*
X0005800Y0014450D02*
X0011300Y0016150D01*
X0014000Y0015950D02*
X0013000Y0011650D01*
X0014000Y0015950D02*
X0013700Y0018550D01*
X0012500Y0020350D01*
X0010700Y0020950D01*
X0010700Y0025750D01*
X0008853Y0027597D01*
X0008853Y0030035D01*
X0006884Y0030035D01*
X0004916Y0030035D01*
X0002947Y0030035D01*
X0002900Y0039550D02*
X0002900Y0041818D01*
X0002947Y0041865D01*
X0006884Y0041865D02*
X0007362Y0042329D01*
X0007362Y0043625D01*
X0007889Y0044152D01*
X0009241Y0044152D01*
X0012512Y0044196D01*
X0008853Y0041865D02*
X0016615Y0041865D01*
X0017300Y0042550D01*
X0017428Y0042678D01*
X0017300Y0042550D02*
X0017025Y0045372D01*
X0017025Y0048128D02*
X0017722Y0048128D01*
X0018121Y0048128D01*
X0020231Y0050134D01*
X0026540Y0050134D01*
X0027571Y0049190D01*
X0027571Y0048021D01*
X0029594Y0045998D01*
X0026300Y0043774D02*
X0029037Y0041950D01*
X0030408Y0041779D01*
X0033213Y0042379D01*
X0033213Y0041474D01*
X0036621Y0038066D01*
X0036621Y0037418D01*
X0036959Y0031750D01*
X0036959Y0026719D01*
X0034695Y0024454D01*
X0035000Y0024450D01*
X0034695Y0024454D02*
X0027979Y0024544D01*
X0026172Y0025171D01*
X0026998Y0032405D01*
X0028100Y0035850D02*
X0031503Y0037418D01*
X0031841Y0031750D02*
X0032900Y0027550D01*
X0035000Y0019450D02*
X0027751Y0019740D01*
X0027500Y0019750D01*
X0021658Y0025592D01*
X0021658Y0041819D01*
X0021655Y0041829D01*
X0021660Y0041839D01*
X0021525Y0042307D01*
X0021397Y0042778D01*
X0021088Y0043845D01*
X0021320Y0047958D01*
X0024889Y0048138D01*
X0024894Y0048137D01*
X0024898Y0048133D01*
X0024899Y0048128D01*
X0023780Y0047739D01*
X0024702Y0045372D02*
X0026300Y0043774D01*
X0021500Y0047950D02*
X0021320Y0047958D01*
X0019712Y0046523D02*
X0019700Y0036284D01*
X0018500Y0035084D01*
X0018500Y0035350D01*
X0018147Y0035350D01*
X0014202Y0039295D01*
X0018500Y0035084D02*
X0018500Y0034750D01*
X0014202Y0032405D02*
X0016700Y0026950D01*
X0019074Y0023850D02*
X0019700Y0023350D01*
X0027200Y0015650D02*
X0027200Y0013450D01*
X0028000Y0011650D01*
X0030500Y0010050D01*
X0031100Y0009450D01*
X0031000Y0009450D01*
X0029600Y0008050D01*
X0028100Y0005050D01*
X0031100Y0009450D02*
X0035000Y0009450D01*
X0036621Y0038066D02*
X0036621Y0038370D01*
X0019712Y0046523D02*
X0017722Y0048128D01*
D18*
X0021320Y0047958D03*
X0017428Y0042678D03*
X0012512Y0044196D03*
X0018500Y0034750D03*
X0016700Y0026950D03*
X0019700Y0023350D03*
X0026172Y0025171D03*
X0027751Y0019740D03*
X0027200Y0015650D03*
X0028100Y0005050D03*
X0024600Y0005050D03*
X0018100Y0005050D03*
X0014600Y0005050D03*
X0011300Y0016150D03*
X0012500Y0020350D03*
X0028100Y0035850D03*
X0032900Y0027550D03*
M02*
