G75*
%MOIN*%
%OFA0B0*%
%FSLAX25Y25*%
%IPPOS*%
%LPD*%
%AMOC8*
5,1,8,0,0,1.08239X$1,22.5*
%
%ADD10C,0.02362*%
%ADD11C,0.00600*%
%ADD12C,0.02165*%
D10*
X0013800Y0024102D03*
X0025400Y0014802D03*
X0025800Y0018402D03*
X0025300Y0008002D03*
X0039800Y0022602D03*
X0039800Y0029202D03*
X0040900Y0032802D03*
X0040400Y0037102D03*
X0029900Y0036202D03*
X0028400Y0042802D03*
X0025400Y0047002D03*
X0029000Y0048802D03*
X0045800Y0010002D03*
D11*
X0012800Y0014502D02*
X0012800Y0020102D01*
X0010500Y0022402D01*
X0010500Y0029102D01*
X0015100Y0034002D01*
X0018900Y0040802D01*
X0025600Y0047802D01*
X0025400Y0047002D01*
X0026500Y0042202D02*
X0028400Y0042802D01*
X0029000Y0048802D02*
X0029134Y0048815D01*
X0029269Y0048823D01*
X0029404Y0048828D01*
X0029539Y0048829D01*
X0029674Y0048826D01*
X0029809Y0048819D01*
X0029943Y0048808D01*
X0030078Y0048794D01*
X0030211Y0048775D01*
X0030344Y0048753D01*
X0030477Y0048727D01*
X0030609Y0048697D01*
X0030739Y0048664D01*
X0030869Y0048626D01*
X0030998Y0048585D01*
X0031125Y0048541D01*
X0031251Y0048493D01*
X0031376Y0048441D01*
X0031499Y0048385D01*
X0031621Y0048327D01*
X0031740Y0048264D01*
X0031858Y0048199D01*
X0031974Y0048130D01*
X0032088Y0048057D01*
X0032200Y0047982D01*
X0032310Y0047903D01*
X0032417Y0047821D01*
X0032522Y0047737D01*
X0032625Y0047649D01*
X0032725Y0047558D01*
X0032822Y0047465D01*
X0032917Y0047368D01*
X0033009Y0047269D01*
X0033098Y0047168D01*
X0033184Y0047064D01*
X0033267Y0046958D01*
X0033347Y0046849D01*
X0033424Y0046738D01*
X0033498Y0046625D01*
X0033568Y0046510D01*
X0033635Y0046392D01*
X0033699Y0046273D01*
X0033759Y0046153D01*
X0033816Y0046030D01*
X0033869Y0045906D01*
X0033919Y0045781D01*
X0033965Y0045654D01*
X0034008Y0045526D01*
X0034046Y0045396D01*
X0034081Y0045266D01*
X0034113Y0045135D01*
X0034140Y0045002D01*
X0034164Y0044870D01*
X0034184Y0044736D01*
X0034200Y0044602D01*
X0034200Y0040502D01*
X0034198Y0040372D01*
X0034192Y0040242D01*
X0034182Y0040113D01*
X0034169Y0039984D01*
X0034151Y0039855D01*
X0034130Y0039727D01*
X0034104Y0039600D01*
X0034075Y0039473D01*
X0034042Y0039347D01*
X0034005Y0039223D01*
X0033965Y0039099D01*
X0033921Y0038977D01*
X0033873Y0038856D01*
X0033821Y0038737D01*
X0033766Y0038620D01*
X0033707Y0038504D01*
X0033645Y0038390D01*
X0033580Y0038277D01*
X0033511Y0038167D01*
X0033439Y0038059D01*
X0033363Y0037954D01*
X0033285Y0037850D01*
X0033203Y0037749D01*
X0033119Y0037651D01*
X0033031Y0037555D01*
X0032941Y0037461D01*
X0032847Y0037371D01*
X0032751Y0037283D01*
X0032653Y0037199D01*
X0032552Y0037117D01*
X0032448Y0037039D01*
X0032343Y0036963D01*
X0032235Y0036891D01*
X0032125Y0036822D01*
X0032012Y0036757D01*
X0031898Y0036695D01*
X0031782Y0036636D01*
X0031665Y0036581D01*
X0031546Y0036529D01*
X0031425Y0036481D01*
X0031303Y0036437D01*
X0031179Y0036397D01*
X0031055Y0036360D01*
X0030929Y0036327D01*
X0030802Y0036298D01*
X0030675Y0036272D01*
X0030547Y0036251D01*
X0030418Y0036233D01*
X0030289Y0036220D01*
X0030160Y0036210D01*
X0030030Y0036204D01*
X0029900Y0036202D01*
X0023400Y0036202D01*
X0026500Y0042202D02*
X0026265Y0042186D01*
X0026030Y0042165D01*
X0025795Y0042137D01*
X0025561Y0042104D01*
X0025329Y0042065D01*
X0025097Y0042021D01*
X0024866Y0041971D01*
X0024637Y0041915D01*
X0024409Y0041854D01*
X0024183Y0041788D01*
X0023958Y0041716D01*
X0023735Y0041638D01*
X0023514Y0041555D01*
X0023295Y0041467D01*
X0023078Y0041374D01*
X0022864Y0041275D01*
X0022652Y0041172D01*
X0022442Y0041063D01*
X0022236Y0040949D01*
X0022032Y0040830D01*
X0021831Y0040706D01*
X0021633Y0040578D01*
X0021438Y0040445D01*
X0021247Y0040307D01*
X0021058Y0040164D01*
X0020874Y0040017D01*
X0020693Y0039866D01*
X0020516Y0039710D01*
X0020342Y0039550D01*
X0020173Y0039386D01*
X0020007Y0039217D01*
X0019846Y0039045D01*
X0019688Y0038869D01*
X0019535Y0038689D01*
X0019387Y0038506D01*
X0019243Y0038319D01*
X0019103Y0038129D01*
X0018969Y0037935D01*
X0018838Y0037738D01*
X0018713Y0037538D01*
X0018593Y0037335D01*
X0018477Y0037130D01*
X0018367Y0036921D01*
X0018261Y0036710D01*
X0018161Y0036496D01*
X0018066Y0036280D01*
X0017976Y0036062D01*
X0017891Y0035842D01*
X0017812Y0035619D01*
X0017738Y0035395D01*
X0017670Y0035169D01*
X0017607Y0034942D01*
X0017549Y0034713D01*
X0017497Y0034483D01*
X0017451Y0034251D01*
X0017411Y0034019D01*
X0017375Y0033786D01*
X0017346Y0033551D01*
X0017322Y0033317D01*
X0017304Y0033081D01*
X0017292Y0032846D01*
X0017285Y0032610D01*
X0017284Y0032374D01*
X0017289Y0032138D01*
X0017300Y0031902D01*
X0017300Y0026702D01*
X0018700Y0025202D02*
X0018700Y0031502D01*
X0021170Y0031008D02*
X0032981Y0022822D01*
X0035600Y0019002D02*
X0026000Y0014802D01*
X0025400Y0014802D01*
X0025800Y0018402D02*
X0025798Y0018419D01*
X0025794Y0018436D01*
X0025787Y0018452D01*
X0025777Y0018466D01*
X0025764Y0018479D01*
X0025750Y0018489D01*
X0025734Y0018496D01*
X0025717Y0018500D01*
X0025700Y0018502D01*
X0025400Y0018502D01*
X0023800Y0010802D02*
X0023599Y0010804D01*
X0023399Y0010812D01*
X0023199Y0010824D01*
X0022999Y0010841D01*
X0022800Y0010863D01*
X0022601Y0010889D01*
X0022403Y0010920D01*
X0022205Y0010957D01*
X0022009Y0010998D01*
X0021814Y0011043D01*
X0021620Y0011094D01*
X0021427Y0011149D01*
X0021235Y0011208D01*
X0021045Y0011273D01*
X0020857Y0011341D01*
X0020670Y0011415D01*
X0020485Y0011493D01*
X0020302Y0011575D01*
X0020122Y0011662D01*
X0019943Y0011753D01*
X0019766Y0011848D01*
X0019592Y0011948D01*
X0019421Y0012051D01*
X0019251Y0012159D01*
X0019085Y0012271D01*
X0018921Y0012387D01*
X0018761Y0012507D01*
X0018603Y0012631D01*
X0018448Y0012758D01*
X0018296Y0012889D01*
X0018148Y0013024D01*
X0018002Y0013163D01*
X0017861Y0013304D01*
X0017722Y0013450D01*
X0017587Y0013598D01*
X0017456Y0013750D01*
X0017329Y0013905D01*
X0017205Y0014063D01*
X0017085Y0014223D01*
X0016969Y0014387D01*
X0016857Y0014553D01*
X0016749Y0014723D01*
X0016646Y0014894D01*
X0016546Y0015068D01*
X0016451Y0015245D01*
X0016360Y0015424D01*
X0016273Y0015604D01*
X0016191Y0015787D01*
X0016113Y0015972D01*
X0016039Y0016159D01*
X0015971Y0016347D01*
X0015906Y0016537D01*
X0015847Y0016729D01*
X0015792Y0016922D01*
X0015741Y0017116D01*
X0015696Y0017311D01*
X0015655Y0017507D01*
X0015618Y0017705D01*
X0015587Y0017903D01*
X0015561Y0018102D01*
X0015539Y0018301D01*
X0015522Y0018501D01*
X0015510Y0018701D01*
X0015502Y0018901D01*
X0015500Y0019102D01*
X0015500Y0022402D01*
X0015498Y0022483D01*
X0015492Y0022564D01*
X0015483Y0022644D01*
X0015469Y0022724D01*
X0015452Y0022803D01*
X0015431Y0022881D01*
X0015407Y0022958D01*
X0015378Y0023034D01*
X0015346Y0023108D01*
X0015311Y0023181D01*
X0015272Y0023252D01*
X0015230Y0023321D01*
X0015185Y0023388D01*
X0015136Y0023453D01*
X0015085Y0023515D01*
X0015030Y0023575D01*
X0014973Y0023632D01*
X0014913Y0023687D01*
X0014851Y0023738D01*
X0014786Y0023787D01*
X0014719Y0023832D01*
X0014650Y0023874D01*
X0014579Y0023913D01*
X0014506Y0023948D01*
X0014432Y0023980D01*
X0014356Y0024009D01*
X0014279Y0024033D01*
X0014201Y0024054D01*
X0014122Y0024071D01*
X0014042Y0024085D01*
X0013962Y0024094D01*
X0013881Y0024100D01*
X0013800Y0024102D01*
X0013899Y0024074D01*
X0014000Y0024050D01*
X0014101Y0024029D01*
X0014203Y0024013D01*
X0014305Y0024000D01*
X0014408Y0023992D01*
X0014511Y0023987D01*
X0014615Y0023986D01*
X0014718Y0023989D01*
X0014821Y0023996D01*
X0014924Y0024007D01*
X0015026Y0024022D01*
X0015128Y0024041D01*
X0015228Y0024064D01*
X0015328Y0024090D01*
X0015427Y0024120D01*
X0015525Y0024154D01*
X0015621Y0024192D01*
X0015716Y0024233D01*
X0015809Y0024278D01*
X0015900Y0024326D01*
X0015989Y0024378D01*
X0016077Y0024433D01*
X0016162Y0024491D01*
X0016245Y0024553D01*
X0016325Y0024618D01*
X0016403Y0024685D01*
X0016479Y0024756D01*
X0016551Y0024829D01*
X0016621Y0024906D01*
X0016688Y0024984D01*
X0016752Y0025066D01*
X0016812Y0025149D01*
X0016870Y0025235D01*
X0016924Y0025323D01*
X0016975Y0025413D01*
X0017022Y0025505D01*
X0017066Y0025599D01*
X0017106Y0025694D01*
X0017142Y0025790D01*
X0017175Y0025888D01*
X0017204Y0025987D01*
X0017230Y0026088D01*
X0017251Y0026189D01*
X0017269Y0026290D01*
X0017282Y0026393D01*
X0017292Y0026496D01*
X0017298Y0026599D01*
X0017300Y0026702D01*
X0018700Y0031502D02*
X0018702Y0031636D01*
X0018708Y0031770D01*
X0018717Y0031904D01*
X0018731Y0032038D01*
X0018748Y0032171D01*
X0018769Y0032303D01*
X0018794Y0032435D01*
X0018822Y0032567D01*
X0018854Y0032697D01*
X0018890Y0032826D01*
X0018930Y0032954D01*
X0018973Y0033081D01*
X0019020Y0033207D01*
X0019071Y0033332D01*
X0019125Y0033454D01*
X0019182Y0033576D01*
X0019243Y0033695D01*
X0019307Y0033813D01*
X0019375Y0033929D01*
X0019446Y0034043D01*
X0019520Y0034155D01*
X0019598Y0034265D01*
X0019678Y0034372D01*
X0019762Y0034477D01*
X0019848Y0034580D01*
X0019937Y0034680D01*
X0020029Y0034778D01*
X0020124Y0034873D01*
X0020222Y0034965D01*
X0020322Y0035054D01*
X0020425Y0035140D01*
X0020530Y0035224D01*
X0020637Y0035304D01*
X0020747Y0035382D01*
X0020859Y0035456D01*
X0020973Y0035527D01*
X0021089Y0035595D01*
X0021207Y0035659D01*
X0021326Y0035720D01*
X0021448Y0035777D01*
X0021570Y0035831D01*
X0021695Y0035882D01*
X0021821Y0035929D01*
X0021948Y0035972D01*
X0022076Y0036012D01*
X0022205Y0036048D01*
X0022335Y0036080D01*
X0022467Y0036108D01*
X0022599Y0036133D01*
X0022731Y0036154D01*
X0022864Y0036171D01*
X0022998Y0036185D01*
X0023132Y0036194D01*
X0023266Y0036200D01*
X0023400Y0036202D01*
X0018700Y0025202D02*
X0018702Y0025040D01*
X0018708Y0024878D01*
X0018718Y0024717D01*
X0018731Y0024555D01*
X0018749Y0024394D01*
X0018770Y0024234D01*
X0018796Y0024074D01*
X0018825Y0023915D01*
X0018858Y0023756D01*
X0018895Y0023599D01*
X0018935Y0023442D01*
X0018980Y0023286D01*
X0019028Y0023132D01*
X0019080Y0022978D01*
X0019135Y0022826D01*
X0019195Y0022675D01*
X0019257Y0022526D01*
X0019324Y0022379D01*
X0019394Y0022233D01*
X0019467Y0022088D01*
X0019544Y0021946D01*
X0019625Y0021805D01*
X0019709Y0021667D01*
X0019796Y0021530D01*
X0019886Y0021396D01*
X0019980Y0021264D01*
X0020076Y0021134D01*
X0020176Y0021007D01*
X0020279Y0020882D01*
X0020385Y0020759D01*
X0020494Y0020639D01*
X0020605Y0020522D01*
X0020720Y0020407D01*
X0020837Y0020296D01*
X0020957Y0020187D01*
X0021080Y0020081D01*
X0021205Y0019978D01*
X0021332Y0019878D01*
X0021462Y0019782D01*
X0021594Y0019688D01*
X0021728Y0019598D01*
X0021865Y0019511D01*
X0022003Y0019427D01*
X0022144Y0019346D01*
X0022286Y0019269D01*
X0022431Y0019196D01*
X0022577Y0019126D01*
X0022724Y0019059D01*
X0022873Y0018997D01*
X0023024Y0018937D01*
X0023176Y0018882D01*
X0023330Y0018830D01*
X0023484Y0018782D01*
X0023640Y0018737D01*
X0023797Y0018697D01*
X0023954Y0018660D01*
X0024113Y0018627D01*
X0024272Y0018598D01*
X0024432Y0018572D01*
X0024592Y0018551D01*
X0024753Y0018533D01*
X0024915Y0018520D01*
X0025076Y0018510D01*
X0025238Y0018504D01*
X0025400Y0018502D01*
X0026400Y0010802D02*
X0026724Y0010806D01*
X0027047Y0010818D01*
X0027371Y0010837D01*
X0027693Y0010865D01*
X0028015Y0010900D01*
X0028336Y0010943D01*
X0028656Y0010993D01*
X0028974Y0011052D01*
X0029292Y0011118D01*
X0029607Y0011191D01*
X0029920Y0011273D01*
X0030232Y0011362D01*
X0030541Y0011458D01*
X0030848Y0011562D01*
X0031152Y0011673D01*
X0031453Y0011791D01*
X0031751Y0011917D01*
X0032047Y0012050D01*
X0032339Y0012190D01*
X0032627Y0012337D01*
X0032912Y0012491D01*
X0033193Y0012652D01*
X0033470Y0012819D01*
X0033743Y0012993D01*
X0034012Y0013174D01*
X0034276Y0013361D01*
X0034536Y0013555D01*
X0034791Y0013754D01*
X0035041Y0013960D01*
X0035286Y0014172D01*
X0035526Y0014390D01*
X0035760Y0014613D01*
X0035989Y0014842D01*
X0036212Y0015076D01*
X0036430Y0015316D01*
X0036642Y0015561D01*
X0036848Y0015811D01*
X0037047Y0016066D01*
X0037241Y0016326D01*
X0037428Y0016590D01*
X0037609Y0016859D01*
X0037783Y0017132D01*
X0037950Y0017409D01*
X0038111Y0017690D01*
X0038265Y0017975D01*
X0038412Y0018263D01*
X0038552Y0018555D01*
X0038685Y0018851D01*
X0038811Y0019149D01*
X0038929Y0019450D01*
X0039040Y0019754D01*
X0039144Y0020061D01*
X0039240Y0020370D01*
X0039329Y0020682D01*
X0039411Y0020995D01*
X0039484Y0021310D01*
X0039550Y0021628D01*
X0039609Y0021946D01*
X0039659Y0022266D01*
X0039702Y0022587D01*
X0039737Y0022909D01*
X0039765Y0023231D01*
X0039784Y0023555D01*
X0039796Y0023878D01*
X0039800Y0024202D01*
X0039800Y0022602D01*
X0039800Y0024202D02*
X0039800Y0029202D01*
X0036800Y0030402D02*
X0035600Y0019002D01*
X0036800Y0030402D02*
X0040900Y0032802D01*
X0042700Y0037102D02*
X0042800Y0037106D01*
X0042901Y0037106D01*
X0043001Y0037102D01*
X0043101Y0037094D01*
X0043200Y0037082D01*
X0043299Y0037066D01*
X0043398Y0037047D01*
X0043495Y0037023D01*
X0043592Y0036996D01*
X0043687Y0036965D01*
X0043781Y0036930D01*
X0043874Y0036892D01*
X0043965Y0036850D01*
X0044054Y0036804D01*
X0044142Y0036755D01*
X0044227Y0036703D01*
X0044311Y0036647D01*
X0044392Y0036588D01*
X0044471Y0036526D01*
X0044547Y0036461D01*
X0044620Y0036393D01*
X0044691Y0036322D01*
X0044759Y0036248D01*
X0044825Y0036172D01*
X0044887Y0036093D01*
X0044946Y0036012D01*
X0045001Y0035929D01*
X0045054Y0035843D01*
X0045103Y0035756D01*
X0045148Y0035666D01*
X0045190Y0035575D01*
X0045228Y0035483D01*
X0045263Y0035388D01*
X0045294Y0035293D01*
X0045321Y0035196D01*
X0045345Y0035099D01*
X0045364Y0035001D01*
X0045380Y0034902D01*
X0045392Y0034802D01*
X0045400Y0034702D01*
X0045600Y0010502D01*
X0045800Y0010002D01*
X0026400Y0010802D02*
X0023800Y0010802D01*
X0025300Y0008002D02*
X0019300Y0008002D01*
X0012800Y0014502D01*
X0040400Y0037102D02*
X0042700Y0037102D01*
D12*
X0032981Y0022822D03*
X0021170Y0031008D03*
M02*
