G75*
%MOIN*%
%OFA0B0*%
%FSLAX25Y25*%
%IPPOS*%
%LPD*%
%AMOC8*
5,1,8,0,0,1.08239X$1,22.5*
%
%ADD10R,0.02200X0.05000*%
%ADD11R,0.07800X0.02200*%
%ADD12R,0.04921X0.01575*%
%ADD13R,0.03543X0.02756*%
%ADD14R,0.02756X0.03543*%
%ADD15R,0.04724X0.03150*%
%ADD16C,0.00600*%
%ADD17C,0.02362*%
%ADD18C,0.02165*%
D10*
X0017100Y0025002D03*
X0024500Y0025002D03*
X0024500Y0035202D03*
X0020800Y0035202D03*
X0017100Y0035202D03*
D11*
X0018100Y0019102D03*
X0018100Y0014102D03*
X0018100Y0009102D03*
X0018100Y0004102D03*
X0037500Y0004102D03*
X0037500Y0009102D03*
X0037500Y0014102D03*
X0037500Y0019102D03*
D12*
X0035872Y0027362D03*
X0035872Y0031102D03*
X0035872Y0034842D03*
X0044731Y0034842D03*
X0044731Y0031102D03*
X0044731Y0027362D03*
D13*
X0045100Y0019061D03*
X0045100Y0013943D03*
X0030500Y0027543D03*
X0030500Y0032661D03*
X0010400Y0021561D03*
X0010400Y0016443D03*
D14*
G36*
X0012705Y0027902D02*
X0011992Y0025241D01*
X0008571Y0026158D01*
X0009284Y0028819D01*
X0012705Y0027902D01*
G37*
G36*
X0014029Y0032846D02*
X0013316Y0030185D01*
X0009895Y0031102D01*
X0010608Y0033763D01*
X0014029Y0032846D01*
G37*
D15*
X0020802Y0044657D03*
X0020802Y0051547D03*
X0033598Y0051547D03*
X0033598Y0044657D03*
D16*
X0010400Y0016443D02*
X0010400Y0015302D01*
X0010402Y0015183D01*
X0010408Y0015065D01*
X0010417Y0014947D01*
X0010430Y0014829D01*
X0010447Y0014711D01*
X0010468Y0014595D01*
X0010493Y0014479D01*
X0010521Y0014363D01*
X0010553Y0014249D01*
X0010588Y0014136D01*
X0010628Y0014024D01*
X0010670Y0013914D01*
X0010717Y0013804D01*
X0010766Y0013697D01*
X0010820Y0013591D01*
X0010876Y0013486D01*
X0010936Y0013384D01*
X0010999Y0013284D01*
X0011065Y0013185D01*
X0011135Y0013089D01*
X0011207Y0012995D01*
X0011283Y0012904D01*
X0011361Y0012814D01*
X0011442Y0012728D01*
X0011526Y0012644D01*
X0011612Y0012563D01*
X0011702Y0012485D01*
X0011793Y0012409D01*
X0011887Y0012337D01*
X0011983Y0012267D01*
X0012082Y0012201D01*
X0012182Y0012138D01*
X0012284Y0012078D01*
X0012389Y0012022D01*
X0012495Y0011968D01*
X0012602Y0011919D01*
X0012712Y0011872D01*
X0012822Y0011830D01*
X0012934Y0011790D01*
X0013047Y0011755D01*
X0013161Y0011723D01*
X0013277Y0011695D01*
X0013393Y0011670D01*
X0013509Y0011649D01*
X0013627Y0011632D01*
X0013745Y0011619D01*
X0013863Y0011610D01*
X0013981Y0011604D01*
X0014100Y0011602D01*
X0029387Y0011602D01*
X0029407Y0011604D01*
X0029426Y0011609D01*
X0029444Y0011617D01*
X0029460Y0011628D01*
X0029474Y0011642D01*
X0029485Y0011659D01*
X0029493Y0011676D01*
X0029498Y0011695D01*
X0029500Y0011715D01*
X0029500Y0014702D01*
X0029500Y0011715D02*
X0029500Y0010502D01*
X0032785Y0012615D02*
X0032777Y0012633D01*
X0029021Y0021014D01*
X0030800Y0024002D01*
X0030799Y0024002D02*
X0030853Y0024078D01*
X0030910Y0024153D01*
X0030970Y0024224D01*
X0031033Y0024294D01*
X0031099Y0024360D01*
X0031167Y0024424D01*
X0031238Y0024485D01*
X0031311Y0024543D01*
X0031387Y0024598D01*
X0031465Y0024650D01*
X0031545Y0024698D01*
X0031626Y0024744D01*
X0031710Y0024785D01*
X0031795Y0024824D01*
X0031882Y0024859D01*
X0031970Y0024890D01*
X0032060Y0024917D01*
X0032150Y0024941D01*
X0032241Y0024961D01*
X0032333Y0024978D01*
X0032426Y0024990D01*
X0032519Y0024999D01*
X0032613Y0025004D01*
X0032706Y0025005D01*
X0032800Y0025002D01*
X0033712Y0026874D02*
X0035872Y0027362D01*
X0035873Y0027362D02*
X0035853Y0027260D01*
X0035830Y0027159D01*
X0035803Y0027059D01*
X0035772Y0026960D01*
X0035738Y0026862D01*
X0035700Y0026765D01*
X0035659Y0026670D01*
X0035615Y0026576D01*
X0035567Y0026484D01*
X0035515Y0026394D01*
X0035461Y0026305D01*
X0035403Y0026219D01*
X0035342Y0026135D01*
X0035279Y0026053D01*
X0035212Y0025974D01*
X0035142Y0025896D01*
X0035070Y0025822D01*
X0034995Y0025750D01*
X0034918Y0025681D01*
X0034838Y0025615D01*
X0034755Y0025552D01*
X0034671Y0025492D01*
X0034584Y0025434D01*
X0034495Y0025381D01*
X0034405Y0025330D01*
X0034312Y0025283D01*
X0034218Y0025239D01*
X0034123Y0025198D01*
X0034026Y0025161D01*
X0033928Y0025128D01*
X0033828Y0025098D01*
X0033728Y0025071D01*
X0033626Y0025049D01*
X0033524Y0025030D01*
X0033422Y0025015D01*
X0033318Y0025003D01*
X0033215Y0024996D01*
X0033111Y0024992D01*
X0033007Y0024991D01*
X0032904Y0024995D01*
X0032800Y0025002D01*
X0032981Y0022822D02*
X0042150Y0026849D01*
X0042270Y0026874D02*
X0042570Y0026874D01*
X0044731Y0027362D01*
X0042270Y0026874D02*
X0042239Y0026872D01*
X0042209Y0026868D01*
X0042179Y0026860D01*
X0042150Y0026849D01*
X0040300Y0029202D02*
X0035872Y0031102D01*
X0033712Y0030615D01*
X0033412Y0030615D01*
X0033227Y0030551D02*
X0031187Y0028957D01*
X0031072Y0028721D02*
X0031072Y0028421D01*
X0030500Y0027543D01*
X0028128Y0026265D01*
X0025300Y0026265D01*
X0024500Y0025002D01*
X0022510Y0028015D02*
X0022459Y0027989D01*
X0022411Y0027960D01*
X0022364Y0027927D01*
X0022319Y0027892D01*
X0022320Y0027893D02*
X0021650Y0027209D01*
X0022512Y0022345D01*
X0023307Y0021605D02*
X0029021Y0021014D01*
X0026800Y0018402D02*
X0025800Y0018402D01*
X0025400Y0014802D02*
X0018100Y0014102D01*
X0018100Y0009102D02*
X0025200Y0008002D01*
X0025233Y0007998D01*
X0025267Y0007998D01*
X0025300Y0008002D01*
X0023100Y0004102D02*
X0023257Y0004104D01*
X0023414Y0004110D01*
X0023571Y0004119D01*
X0023727Y0004133D01*
X0023883Y0004150D01*
X0024039Y0004171D01*
X0024194Y0004196D01*
X0024349Y0004225D01*
X0024502Y0004258D01*
X0024655Y0004294D01*
X0024807Y0004334D01*
X0024958Y0004378D01*
X0025108Y0004425D01*
X0025256Y0004476D01*
X0025403Y0004531D01*
X0025549Y0004589D01*
X0025694Y0004651D01*
X0025836Y0004716D01*
X0025978Y0004785D01*
X0026117Y0004858D01*
X0026255Y0004933D01*
X0026390Y0005013D01*
X0026524Y0005095D01*
X0026656Y0005181D01*
X0026785Y0005269D01*
X0026912Y0005361D01*
X0027037Y0005457D01*
X0027160Y0005555D01*
X0027280Y0005656D01*
X0027398Y0005760D01*
X0027513Y0005867D01*
X0027625Y0005977D01*
X0027735Y0006089D01*
X0027842Y0006204D01*
X0027946Y0006322D01*
X0028047Y0006442D01*
X0028145Y0006565D01*
X0028241Y0006690D01*
X0028333Y0006817D01*
X0028421Y0006946D01*
X0028507Y0007078D01*
X0028589Y0007212D01*
X0028669Y0007347D01*
X0028744Y0007485D01*
X0028817Y0007624D01*
X0028886Y0007766D01*
X0028951Y0007908D01*
X0029013Y0008053D01*
X0029071Y0008199D01*
X0029126Y0008346D01*
X0029177Y0008494D01*
X0029224Y0008644D01*
X0029268Y0008795D01*
X0029308Y0008947D01*
X0029344Y0009100D01*
X0029377Y0009253D01*
X0029406Y0009408D01*
X0029431Y0009563D01*
X0029452Y0009719D01*
X0029469Y0009875D01*
X0029483Y0010031D01*
X0029492Y0010188D01*
X0029498Y0010345D01*
X0029500Y0010502D01*
X0032785Y0012615D02*
X0033871Y0010331D01*
X0033900Y0010202D02*
X0033900Y0009902D01*
X0037500Y0009102D01*
X0033900Y0010202D02*
X0033898Y0010235D01*
X0033893Y0010268D01*
X0033883Y0010300D01*
X0033871Y0010331D01*
X0033900Y0014902D02*
X0037500Y0014102D01*
X0033900Y0014902D02*
X0033900Y0015202D01*
X0033871Y0015331D02*
X0032785Y0017615D01*
X0032698Y0018002D02*
X0032698Y0020202D01*
X0032704Y0020301D02*
X0032981Y0022822D01*
X0032704Y0020301D02*
X0032699Y0020251D01*
X0032698Y0020202D01*
X0032698Y0018002D02*
X0032700Y0017945D01*
X0032705Y0017888D01*
X0032714Y0017831D01*
X0032727Y0017776D01*
X0032743Y0017721D01*
X0032763Y0017667D01*
X0032785Y0017615D01*
X0033871Y0015331D02*
X0033883Y0015300D01*
X0033893Y0015268D01*
X0033898Y0015235D01*
X0033900Y0015202D01*
X0037500Y0019102D02*
X0039800Y0022602D01*
X0041100Y0019081D02*
X0037500Y0019102D01*
X0041100Y0019081D02*
X0043628Y0019081D01*
X0045100Y0019061D01*
X0045100Y0013943D02*
X0045800Y0010002D01*
X0043503Y0007945D02*
X0043628Y0012557D01*
X0043628Y0012865D01*
X0045100Y0013943D01*
X0043503Y0007945D02*
X0043499Y0007857D01*
X0043491Y0007768D01*
X0043479Y0007681D01*
X0043464Y0007594D01*
X0043445Y0007507D01*
X0043422Y0007422D01*
X0043396Y0007337D01*
X0043366Y0007254D01*
X0043333Y0007172D01*
X0043297Y0007091D01*
X0043257Y0007012D01*
X0043213Y0006935D01*
X0043167Y0006860D01*
X0043117Y0006786D01*
X0043065Y0006715D01*
X0043009Y0006646D01*
X0041630Y0005009D01*
X0041400Y0004902D02*
X0041100Y0004902D01*
X0037500Y0004102D01*
X0041400Y0004902D02*
X0041432Y0004904D01*
X0041465Y0004909D01*
X0041496Y0004918D01*
X0041526Y0004930D01*
X0041555Y0004945D01*
X0041582Y0004964D01*
X0041607Y0004985D01*
X0041629Y0005009D01*
X0029500Y0014702D02*
X0029498Y0014821D01*
X0029492Y0014939D01*
X0029483Y0015057D01*
X0029470Y0015175D01*
X0029453Y0015293D01*
X0029432Y0015409D01*
X0029407Y0015525D01*
X0029379Y0015641D01*
X0029347Y0015755D01*
X0029312Y0015868D01*
X0029272Y0015980D01*
X0029230Y0016090D01*
X0029183Y0016200D01*
X0029134Y0016307D01*
X0029080Y0016413D01*
X0029024Y0016518D01*
X0028964Y0016620D01*
X0028901Y0016720D01*
X0028835Y0016819D01*
X0028765Y0016915D01*
X0028693Y0017009D01*
X0028617Y0017100D01*
X0028539Y0017190D01*
X0028458Y0017276D01*
X0028374Y0017360D01*
X0028288Y0017441D01*
X0028198Y0017519D01*
X0028107Y0017595D01*
X0028013Y0017667D01*
X0027917Y0017737D01*
X0027818Y0017803D01*
X0027718Y0017866D01*
X0027616Y0017926D01*
X0027511Y0017982D01*
X0027405Y0018036D01*
X0027298Y0018085D01*
X0027188Y0018132D01*
X0027078Y0018174D01*
X0026966Y0018214D01*
X0026853Y0018249D01*
X0026739Y0018281D01*
X0026623Y0018309D01*
X0026507Y0018334D01*
X0026391Y0018355D01*
X0026273Y0018372D01*
X0026155Y0018385D01*
X0026037Y0018394D01*
X0025919Y0018400D01*
X0025800Y0018402D01*
X0023307Y0021605D02*
X0023249Y0021613D01*
X0023192Y0021624D01*
X0023136Y0021640D01*
X0023081Y0021658D01*
X0023027Y0021681D01*
X0022975Y0021707D01*
X0022924Y0021736D01*
X0022876Y0021768D01*
X0022829Y0021803D01*
X0022785Y0021842D01*
X0022744Y0021883D01*
X0022705Y0021926D01*
X0022670Y0021972D01*
X0022637Y0022021D01*
X0022608Y0022071D01*
X0022581Y0022123D01*
X0022559Y0022177D01*
X0022539Y0022232D01*
X0022524Y0022288D01*
X0022512Y0022345D01*
X0021650Y0027209D02*
X0019207Y0028050D01*
X0018592Y0028456D01*
X0016730Y0029374D01*
X0014923Y0029844D02*
X0013006Y0030852D01*
X0012872Y0030883D02*
X0011962Y0031974D01*
X0012872Y0030883D02*
X0012900Y0030882D01*
X0012927Y0030878D01*
X0012954Y0030872D01*
X0012980Y0030863D01*
X0013006Y0030852D01*
X0010638Y0027030D02*
X0013700Y0024302D01*
X0013700Y0024303D02*
X0013722Y0024284D01*
X0013741Y0024262D01*
X0013758Y0024239D01*
X0013773Y0024214D01*
X0013784Y0024187D01*
X0013793Y0024160D01*
X0013798Y0024131D01*
X0013800Y0024102D01*
X0010400Y0021561D02*
X0010638Y0027030D01*
X0017100Y0035202D02*
X0018700Y0038202D01*
X0018732Y0038258D01*
X0018767Y0038312D01*
X0018805Y0038364D01*
X0018845Y0038415D01*
X0018889Y0038462D01*
X0018935Y0038508D01*
X0018983Y0038551D01*
X0019033Y0038591D01*
X0019086Y0038628D01*
X0019141Y0038662D01*
X0019197Y0038694D01*
X0019255Y0038722D01*
X0019315Y0038747D01*
X0019376Y0038769D01*
X0019437Y0038787D01*
X0019500Y0038802D01*
X0022400Y0038202D02*
X0020800Y0035202D01*
X0022400Y0038202D02*
X0022681Y0038483D01*
X0022941Y0038586D01*
X0023621Y0038802D01*
X0027548Y0038802D01*
X0027648Y0038800D01*
X0027748Y0038794D01*
X0027847Y0038784D01*
X0027947Y0038771D01*
X0028045Y0038753D01*
X0028143Y0038732D01*
X0028240Y0038706D01*
X0028335Y0038677D01*
X0028430Y0038645D01*
X0028523Y0038608D01*
X0028615Y0038568D01*
X0028705Y0038524D01*
X0028793Y0038477D01*
X0028879Y0038427D01*
X0028964Y0038373D01*
X0029046Y0038315D01*
X0029125Y0038255D01*
X0029203Y0038192D01*
X0029278Y0038125D01*
X0029350Y0038056D01*
X0029419Y0037984D01*
X0029486Y0037909D01*
X0029549Y0037831D01*
X0029609Y0037752D01*
X0029667Y0037670D01*
X0029721Y0037585D01*
X0029771Y0037499D01*
X0029818Y0037411D01*
X0029862Y0037321D01*
X0029902Y0037229D01*
X0029939Y0037136D01*
X0029971Y0037041D01*
X0030000Y0036946D01*
X0030026Y0036849D01*
X0030047Y0036751D01*
X0030065Y0036653D01*
X0030078Y0036553D01*
X0030088Y0036454D01*
X0030094Y0036354D01*
X0030096Y0036254D01*
X0029952Y0036254D01*
X0029939Y0036252D01*
X0029926Y0036247D01*
X0029915Y0036239D01*
X0029907Y0036228D01*
X0029902Y0036215D01*
X0029900Y0036202D01*
X0029887Y0036201D01*
X0029874Y0036203D01*
X0029862Y0036208D01*
X0029852Y0036216D01*
X0029844Y0036227D01*
X0029839Y0036239D01*
X0029837Y0036252D01*
X0029839Y0036265D01*
X0029844Y0036277D01*
X0029852Y0036288D01*
X0029862Y0036296D01*
X0029874Y0036301D01*
X0029887Y0036303D01*
X0029900Y0036302D01*
X0035872Y0034842D01*
X0033412Y0030615D02*
X0033379Y0030613D01*
X0033346Y0030608D01*
X0033314Y0030599D01*
X0033283Y0030586D01*
X0033254Y0030570D01*
X0033227Y0030551D01*
X0031186Y0028957D02*
X0031161Y0028935D01*
X0031138Y0028910D01*
X0031118Y0028882D01*
X0031101Y0028853D01*
X0031088Y0028821D01*
X0031079Y0028789D01*
X0031073Y0028755D01*
X0031071Y0028721D01*
X0028828Y0031383D02*
X0029128Y0031883D01*
X0030500Y0032661D01*
X0028828Y0031383D02*
X0028802Y0031334D01*
X0028772Y0031287D01*
X0028739Y0031243D01*
X0028703Y0031200D01*
X0028665Y0031160D01*
X0028624Y0031122D01*
X0028581Y0031087D01*
X0028535Y0031055D01*
X0028488Y0031026D01*
X0028439Y0031001D01*
X0028388Y0030978D01*
X0028336Y0030959D01*
X0028283Y0030943D01*
X0028229Y0030931D01*
X0028174Y0030922D01*
X0028119Y0030917D01*
X0028063Y0030915D01*
X0023066Y0028343D01*
X0023010Y0028315D02*
X0022510Y0028015D01*
X0021170Y0031008D02*
X0022874Y0031757D01*
X0023000Y0032002D02*
X0023700Y0033002D01*
X0024500Y0035202D01*
X0023000Y0032002D02*
X0022998Y0031970D01*
X0022993Y0031939D01*
X0022985Y0031908D01*
X0022974Y0031879D01*
X0022959Y0031850D01*
X0022941Y0031824D01*
X0022921Y0031799D01*
X0022899Y0031777D01*
X0022874Y0031757D01*
X0023066Y0028342D02*
X0023010Y0028315D01*
X0022500Y0039701D02*
X0022720Y0039784D01*
X0022941Y0039861D01*
X0023164Y0039933D01*
X0023389Y0039999D01*
X0023615Y0040060D01*
X0023843Y0040115D01*
X0024072Y0040165D01*
X0024302Y0040210D01*
X0024534Y0040248D01*
X0024766Y0040282D01*
X0024999Y0040309D01*
X0025232Y0040331D01*
X0025466Y0040348D01*
X0025700Y0040358D01*
X0025934Y0040364D01*
X0026169Y0040363D01*
X0026403Y0040357D01*
X0026637Y0040345D01*
X0026871Y0040327D01*
X0027104Y0040304D01*
X0027337Y0040276D01*
X0027569Y0040241D01*
X0027800Y0040201D01*
X0028300Y0043102D02*
X0034443Y0044502D01*
X0034414Y0044540D01*
X0034383Y0044576D01*
X0034348Y0044609D01*
X0034312Y0044639D01*
X0034273Y0044667D01*
X0034232Y0044691D01*
X0034189Y0044712D01*
X0034145Y0044730D01*
X0034099Y0044744D01*
X0034053Y0044754D01*
X0034005Y0044761D01*
X0033958Y0044764D01*
X0033910Y0044763D01*
X0033863Y0044759D01*
X0033816Y0044751D01*
X0033770Y0044739D01*
X0033725Y0044723D01*
X0033681Y0044704D01*
X0033639Y0044682D01*
X0033598Y0044657D01*
X0028000Y0049002D02*
X0020802Y0051547D01*
X0020802Y0044657D02*
X0025600Y0045702D01*
X0016730Y0029374D02*
X0016424Y0029436D01*
X0016121Y0029504D01*
X0015818Y0029579D01*
X0015518Y0029661D01*
X0015219Y0029749D01*
X0014923Y0029844D01*
X0018100Y0004102D02*
X0023100Y0004102D01*
X0041000Y0032802D02*
X0044731Y0031102D01*
X0044731Y0034842D02*
X0044131Y0036371D01*
X0040400Y0037102D01*
X0040200Y0032902D02*
X0041000Y0032802D01*
X0040400Y0037102D02*
X0036175Y0038036D01*
X0031975Y0039069D01*
X0027800Y0040202D01*
X0022500Y0039701D02*
X0022081Y0039542D01*
X0021659Y0039392D01*
X0021233Y0039253D01*
X0020804Y0039124D01*
X0020372Y0039006D01*
X0019937Y0038898D01*
X0019500Y0038801D01*
D17*
X0025600Y0045702D03*
X0028300Y0043102D03*
X0028000Y0049002D03*
X0029900Y0036202D03*
X0040400Y0037102D03*
X0040200Y0032902D03*
X0040300Y0029202D03*
X0039800Y0022602D03*
X0045800Y0010002D03*
X0025800Y0018402D03*
X0025400Y0014802D03*
X0025300Y0008002D03*
X0013800Y0024102D03*
D18*
X0021170Y0031008D03*
X0032981Y0022822D03*
M02*
